<?xml version="1.0" standalone="no"?>
<!DOCTYPE svg PUBLIC "-//W3C//DTD SVG 20010904//EN"
 "http://www.w3.org/TR/2001/REC-SVG-20010904/DTD/svg10.dtd">
<svg version="1.0" xmlns="http://www.w3.org/2000/svg"
 width="124.000000pt" height="151.000000pt" viewBox="0 0 124.000000 151.000000"
 preserveAspectRatio="xMidYMid meet">
<metadata>
Created by Kaynes Technology India Pvt. Ltd.
</metadata>
<rect width="100%" height="100%" fill="white"/>
<g transform="translate(0.000000,151.000000) scale(0.100000,-0.100000)"
fill="#CF0010" stroke="none">
<path d="M0 755 l0 -755 620 0 620 0 0 755 0 755 -620 0 -620 0 0 -755z m844
451 c-86 -136 -155 -248 -153 -250 2 -2 108 -56 236 -122 181 -93 229 -122
220 -131 -52 -53 -693 -650 -695 -648 -1 1 88 129 199 285 116 163 197 285
191 289 -6 3 -110 58 -232 121 l-221 115 303 296 c167 163 304 295 306 294 2
-1 -68 -114 -154 -249z m-646 -1052 l-83 -117 -3 608 -2 609 82 85 83 86 3
-577 2 -577 -82 -117z"/>
</g>
</svg>
